<?xml version="1.0" encoding="UTF-8"?>
<svg width="1200pt" height="1200pt" version="1.1" viewBox="0 0 1200 1200" xmlns="http://www.w3.org/2000/svg">
 <g>
  <path d="m909 449.59c5.1016 5.1016 6.625 12.758 3.8633 19.414-2.7578 6.6602-9.25 10.992-16.465 10.992h-592.81c-7.1992 0-13.703-4.3438-16.453-11.004-2.7617-6.6602-1.2344-14.316 3.8633-19.414l281.29-281.29c15.301-15.301 40.105-15.301 55.414 0z"/>
  <path d="m290.99 750.41c-5.1016-5.1016-6.625-12.758-3.8633-19.414 2.7578-6.6602 9.25-10.992 16.449-10.992h592.84c7.2109 0 13.703 4.332 16.465 10.992 2.7461 6.6602 1.2344 14.316-3.8633 19.414l-281.3 281.32c-15.301 15.301-40.117 15.289-55.414 0z"/>
 </g>
</svg>
