<svg xmlns="http://www.w3.org/2000/svg" xmlns:xlink="http://www.w3.org/1999/xlink" viewBox="0 0 24 30" version="1.1" x="0px" y="0px"><title>icon/sidebar-solid</title><desc>Created with Sketch.</desc><g stroke="none" stroke-width="1" fill="none" fill-rule="evenodd"><path d="M20,19 C20,19.552 19.552,20 19,20 L10,20 L10,4 L19,4 C19.552,4 20,4.448 20,5 L20,19 Z M4,6 L8,6 L8,4 L4,4 L4,6 Z M4,9 L8,9 L8,7 L4,7 L4,9 Z M4,12 L8,12 L8,10 L4,10 L4,12 Z M19,2 L10,2 L8,2 L5,2 C3.346,2 2,3.346 2,5 L2,19 C2,20.654 3.346,22 5,22 L8,22 L10,22 L19,22 C20.654,22 22,20.654 22,19 L22,5 C22,3.346 20.654,2 19,2 L19,2 Z" fill="#000000"/></g><text x="0" y="39" fill="#000000" font-size="5px" font-weight="bold" font-family="'Helvetica Neue', Helvetica, Arial-Unicode, Arial, Sans-serif">Created by Travis Avery</text><text x="0" y="44" fill="#000000" font-size="5px" font-weight="bold" font-family="'Helvetica Neue', Helvetica, Arial-Unicode, Arial, Sans-serif">from the Noun Project</text></svg>